HIERARCHY
ROOT Hips
{
	OFFSET -21.947001 39.810204 44.525997
	CHANNELS 6 Xposition Yposition Zposition Zrotation Xrotation Yrotation
	JOINT Chest
	{
		OFFSET -0.201599 0.334099 6.453201
		CHANNELS 6 Xposition Yposition Zposition Zrotation Xrotation Yrotation
		JOINT Chest2
		{
			OFFSET 0.000000 0.000000 3.568001
			CHANNELS 6 Xposition Yposition Zposition Zrotation Xrotation Yrotation
			JOINT Neck
			{
				OFFSET 0.000000 0.000000 8.296402
				CHANNELS 6 Xposition Yposition Zposition Zrotation Xrotation Yrotation
				JOINT Head
				{
					OFFSET 0.000000 0.000000 2.173901
					CHANNELS 6 Xposition Yposition Zposition Zrotation Xrotation Yrotation
					End Site
					{
						OFFSET 0.000000 0.000000 7.891998
					}
				}
			}
			JOINT LeftCollar
			{
				OFFSET 1.927601 0.221401 6.049000
				CHANNELS 6 Xposition Yposition Zposition Zrotation Xrotation Yrotation
				JOINT LeftShoulder
				{
					OFFSET 4.959700 0.000000 0.000000
					CHANNELS 6 Xposition Yposition Zposition Zrotation Xrotation Yrotation
					JOINT LeftElbow
					{
						OFFSET 0.000000 0.000000 -8.654202
						CHANNELS 6 Xposition Yposition Zposition Zrotation Xrotation Yrotation
						JOINT LeftWrist
						{
							OFFSET 0.000000 0.000000 -13.864101
							CHANNELS 6 Xposition Yposition Zposition Zrotation Xrotation Yrotation
							End Site
							{
								OFFSET 0.000000 0.000000 -2.173901
							}
						}
					}
				}
			}
			JOINT RightCollar
			{
				OFFSET -3.155701 -0.764999 6.687801
				CHANNELS 6 Xposition Yposition Zposition Zrotation Xrotation Yrotation
				JOINT RightShoulder
				{
					OFFSET -3.592899 0.000000 0.000000
					CHANNELS 6 Xposition Yposition Zposition Zrotation Xrotation Yrotation
					JOINT RightElbow
					{
						OFFSET 0.000000 0.000000 -10.352398
						CHANNELS 6 Xposition Yposition Zposition Zrotation Xrotation Yrotation
						JOINT RightWrist
						{
							OFFSET 0.000000 0.000000 -12.750301
							CHANNELS 6 Xposition Yposition Zposition Zrotation Xrotation Yrotation
							End Site
							{
								OFFSET 0.000000 0.000000 -2.173901
							}
						}
					}
				}
			}
		}
	}
	JOINT LeftHip
	{
		OFFSET 2.460600 -0.518101 -2.735500
		CHANNELS 6 Xposition Yposition Zposition Zrotation Xrotation Yrotation
		JOINT LeftKnee
		{
			OFFSET 0.000000 -0.000004 -17.005899
			CHANNELS 6 Xposition Yposition Zposition Zrotation Xrotation Yrotation
			JOINT LeftAnkle
			{
				OFFSET 0.000000 0.000000 -19.194401
				CHANNELS 6 Xposition Yposition Zposition Zrotation Xrotation Yrotation
				End Site
				{
					OFFSET 0.000000 -8.134600 0.000000
				}
			}
		}
	}
	JOINT RightHip
	{
		OFFSET -3.115499 -0.679600 -2.320301
		CHANNELS 6 Xposition Yposition Zposition Zrotation Xrotation Yrotation
		JOINT RightKnee
		{
			OFFSET 0.000000 -0.000004 -17.680401
			CHANNELS 6 Xposition Yposition Zposition Zrotation Xrotation Yrotation
			JOINT RightAnkle
			{
				OFFSET 0.000000 0.000000 -16.993797
				CHANNELS 6 Xposition Yposition Zposition Zrotation Xrotation Yrotation
				End Site
				{
					OFFSET 0.000000 -8.842300 0.000000
				}
			}
		}
	}
}
MOTION
Frames: 4
Frame Time: 0.041667
-24.329802 18.048906 24.309401 2599.272093 7.397908 -2.947091 -0.201604 0.334098 6.453200 15.913936 10.823489 6.697877 0.000003 0.000004 3.567997 -4.944426 -0.818719 -0.708725 0.000002 -0.000003 8.296399 180.704266 -196.475856 181.505802 0.000002 0.000002 2.173908 -0.944173 4.758298 0.936260 1.927603 0.221398 6.048994 -12.722809 -4.583927 1.988443 4.959701 0.000001 -0.000005 164.900902 180.599463 145.580264 -0.000001 -0.000001 -8.654202 -35.518606 -5.029546 5.041544 0.000003 0.000000 -13.864101 4322.249056 -162.625670 222.370892 -3.155701 -0.765007 6.687800 32.306972 -6.125224 -3.646878 -3.592899 -0.000002 0.000002 -152.771114 171.107618 209.294249 0.000000 0.000002 -10.352396 -431.485726 5.855233 -356.101639 0.000001 -0.000005 -12.750301 -73.085305 184.218794 -128.468536 2.460599 -0.518100 -2.735498 -239.745213 -13.628197 102.444853 -0.000003 -0.000010 -17.005899 6.044258 184.884765 -89.649641 -0.000004 0.000001 -19.194403 579.537180 154.612889 217.251720 -3.115501 -0.679601 -2.320299 -305.230308 53.152235 -9.545246 -0.000001 0.000005 -17.680401 -487.942485 172.689107 -208.798774 0.000003 -0.000003 -16.993790 1009.161324 26.198210 -399.569044
-24.296997 18.021404 24.243793 2598.670817 5.630203 -2.877806 -0.201609 0.334098 6.453204 16.219838 11.203048 6.042128 0.000002 0.000004 3.567998 -4.909643 -0.698939 -0.682065 0.000001 0.000001 8.296390 181.300937 -197.167098 181.581713 -0.000004 -0.000001 2.173905 -1.190891 4.849114 0.975206 1.927602 0.221405 6.048995 -12.253598 -5.104653 2.330677 4.959701 0.000002 0.000002 167.675434 177.849902 146.833303 -0.000001 -0.000000 -8.654204 -38.627486 -5.126089 4.712071 -0.000000 -0.000003 -13.864096 4324.179431 -162.683918 220.983203 -3.155703 -0.764997 6.687797 31.906812 -6.525071 -2.694297 -3.592899 -0.000001 -0.000003 -152.729122 168.557567 205.473291 0.000001 0.000005 -10.352397 -442.356983 4.951297 -355.535744 -0.000003 -0.000002 -12.750299 -64.476952 185.114164 -130.192708 2.460595 -0.518103 -2.735498 -239.640629 -14.275950 101.090351 -0.000003 0.000004 -17.005896 5.694943 185.186987 -89.346668 -0.000005 0.000002 -19.194401 580.157798 154.585759 216.601951 -3.115505 -0.679597 -2.320296 -303.480331 54.193815 -11.600194 0.000003 0.000004 -17.680403 -487.361318 172.539280 -208.929203 0.000004 -0.000006 -16.993799 1008.937512 25.945894 -400.372848
-24.272400 17.979101 24.199888 2598.305375 4.243597 -2.822180 -0.201597 0.334091 6.453200 16.503916 11.230941 5.553748 -0.000003 0.000001 3.567998 -5.156125 -0.621810 -0.759504 -0.000001 -0.000001 8.296394 181.927170 -197.839284 181.601124 -0.000001 -0.000005 2.173903 -1.332638 5.001277 1.161146 1.927600 0.221404 6.048993 -11.032805 -5.666685 2.511534 4.959700 0.000000 0.000009 169.585469 174.977425 148.009475 0.000003 0.000009 -8.654201 -40.531056 -4.060429 4.312448 0.000001 0.000001 -13.864095 4322.509586 -163.005005 218.021414 -3.155703 -0.765003 6.687799 30.976571 -7.270756 -2.232913 -3.592903 -0.000001 -0.000008 -152.470053 165.410352 202.080845 0.000001 0.000001 -10.352397 -449.990129 4.306282 -355.488971 0.000006 -0.000006 -12.750296 -58.898647 186.512823 -132.167999 2.460600 -0.518104 -2.735499 -239.733465 -14.842667 100.002514 -0.000003 -0.000002 -17.005894 5.375599 185.522199 -89.120247 -0.000005 0.000003 -19.194401 580.559031 154.685534 216.902315 -3.115501 -0.679606 -2.320296 -303.791487 54.903840 -12.079050 0.000002 0.000002 -17.680403 -487.065325 171.710505 -209.237326 0.000007 -0.000003 -16.993797 1009.345466 25.911441 -399.982244
-24.242001 17.964209 24.153597 2597.826278 2.769929 -2.826390 -0.201602 0.334097 6.453204 16.073754 11.378524 5.011565 -0.000001 0.000004 3.567999 -4.614200 -0.756848 -0.838822 -0.000002 0.000001 8.296394 182.414736 -198.597859 181.966826 -0.000002 -0.000006 2.173903 -1.463693 5.113222 1.162347 1.927598 0.221404 6.049001 -10.748958 -6.320028 3.323077 4.959702 0.000000 0.000001 173.162043 172.218890 148.208958 0.000002 0.000001 -8.654203 -44.079831 -4.042212 4.227039 0.000002 -0.000004 -13.864096 4324.846932 -163.294428 217.050680 -3.155707 -0.765004 6.687803 30.891279 -6.820455 -1.632265 -3.592899 0.000003 -0.000005 -152.517373 162.978764 199.276698 0.000001 0.000004 -10.352400 -460.110448 3.487731 -355.570523 0.000001 -0.000004 -12.750294 -57.842611 191.021526 -135.596932 2.460600 -0.518105 -2.735500 -239.782725 -15.059030 98.806445 -0.000004 0.000001 -17.005898 4.747192 186.164811 -88.961568 -0.000003 0.000005 -19.194401 580.917206 154.860947 218.067955 -3.115503 -0.679595 -2.320297 -302.514461 55.836257 -13.645611 0.000001 0.000001 -17.680401 -487.216737 171.454346 -209.300110 0.000005 0.000000 -16.993795 1009.351586 25.983054 -399.654531
